<?xml version="1.0" encoding="utf-8"?>
<!-- Generator: Adobe Illustrator 22.1.0, SVG Export Plug-In . SVG Version: 6.00 Build 0)  -->
<svg version="1.1" id="Layer_1" xmlns="http://www.w3.org/2000/svg" xmlns:xlink="http://www.w3.org/1999/xlink" x="0px" y="0px"
	 viewBox="0 0 60 60" style="enable-background:new 0 0 60 60;" xml:space="preserve">
<g>
	<path d="M2,2h29v8c0,0.552,0.448,1,1,1h8v3h2v-4c0-0.022-0.011-0.041-0.013-0.063c-0.006-0.088-0.023-0.173-0.051-0.257
		c-0.011-0.032-0.019-0.063-0.034-0.094c-0.049-0.106-0.11-0.207-0.196-0.293l-9-9c-0.086-0.086-0.187-0.147-0.293-0.196
		c-0.031-0.014-0.061-0.022-0.093-0.033c-0.084-0.029-0.17-0.046-0.258-0.051C32.041,0.011,32.022,0,32,0H1C0.448,0,0,0.448,0,1v58
		c0,0.552,0.448,1,1,1h15v-2H2V2z M38.586,9H33V3.414L38.586,9z"/>
	<path d="M59,16H31c-0.552,0-1,0.448-1,1v16c0,0.552,0.448,1,1,1h28c0.552,0,1-0.448,1-1V17C60,16.448,59.552,16,59,16z M58,32H32
		V18h26V32z"/>
	<path d="M59,36H19c-0.552,0-1,0.448-1,1v22c0,0.552,0.448,1,1,1h40c0.552,0,1-0.448,1-1V37C60,36.448,59.552,36,59,36z M55.544,38
		l-15.569,9.833L22.765,38H55.544z M20,58V38.723l19.504,11.145C39.658,49.956,39.829,50,40,50c0.186,0,0.371-0.052,0.534-0.154
		L58,38.815V58H20z"/>
	<rect x="50" y="22" width="5" height="2"/>
	<rect x="44" y="26" width="11" height="2"/>
	<path d="M38,28c1.654,0,3-1.346,3-3s-1.346-3-3-3s-3,1.346-3,3S36.346,28,38,28z M38,24c0.551,0,1,0.449,1,1s-0.449,1-1,1
		s-1-0.449-1-1S37.449,24,38,24z"/>
	<rect x="6" y="6" width="6" height="2"/>
	<rect x="6" y="11" width="19" height="2"/>
	<rect x="6" y="18" width="12" height="2"/>
	<rect x="6" y="24" width="19" height="2"/>
	<rect x="6" y="30" width="19" height="2"/>
	<rect x="6" y="36" width="9" height="2"/>
	<rect x="6" y="42" width="9" height="2"/>
	<rect x="6" y="48" width="9" height="2"/>
</g>
</svg>
