<?xml version="1.0" encoding="utf-8"?>
<!-- Generator: Adobe Illustrator 22.1.0, SVG Export Plug-In . SVG Version: 6.00 Build 0)  -->
<svg version="1.1" id="Layer_1" xmlns="http://www.w3.org/2000/svg" xmlns:xlink="http://www.w3.org/1999/xlink" x="0px" y="0px"
	 viewBox="0 0 62 62" style="enable-background:new 0 0 62 62;" xml:space="preserve">
<g>
	<path d="M47,38c1.654,0,3-1.346,3-3s-1.346-3-3-3s-3,1.346-3,3S45.346,38,47,38z M47,34c0.551,0,1,0.448,1,1s-0.449,1-1,1
		s-1-0.448-1-1S46.449,34,47,34z"/>
	<path d="M58,12.101V0H4v12.101C1.721,12.566,0,14.586,0,17v34c0,2.757,2.243,5,5,5h12v4h-4v2h36v-2h-4v-4h12c2.757,0,5-2.243,5-5
		V17C62,14.586,60.279,12.566,58,12.101z M6,10h34c0,2.288,1.136,4.437,3,5.738v13.523c-1.864,1.302-3,3.45-3,5.738
		c0,3.859,3.14,7,7,7s7-3.141,7-7c0-2.288-1.136-4.437-3-5.738V15.738c1.864-1.302,3-3.45,3-5.738h2v34H6V10z M50,11V6.007
		c1.234,0.927,2,2.397,2,3.993c0,1.774-0.958,3.432-2.501,4.325L49,14.614V26h-4V14.614l-0.499-0.289C42.958,13.432,42,11.774,42,10
		c0-1.596,0.766-3.066,2-3.993V11H50z M44.501,30.675L45,30.386V28h4v2.386l0.499,0.289C51.042,31.568,52,33.226,52,35
		c0,2.757-2.243,5-5,5s-5-2.243-5-5C42,33.226,42.958,31.568,44.501,30.675z M56,2v6h-2.304c-0.631-2.1-2.224-3.837-4.363-4.594
		L48,2.934V9h-2V2.934l-1.333,0.473C42.527,4.163,40.935,5.9,40.304,8H6V2H56z M4,14.184V46h54V14.184c1.161,0.414,2,1.514,2,2.816
		v31H2V17C2,15.698,2.839,14.598,4,14.184z M43,60H19v-4h24V60z M57,54H5c-1.654,0-3-1.346-3-3v-1h58v1C60,52.654,58.654,54,57,54z"
		/>
	<rect x="8" y="4" width="2" height="2"/>
	<rect x="12" y="4" width="2" height="2"/>
	<rect x="16" y="4" width="2" height="2"/>
	<path d="M34.711,21.393l1.779-1.027l-1-1.732l-1.773,1.023c-0.908-1.321-2.053-2.467-3.375-3.375l1.024-1.773l-1.732-1
		l-1.027,1.779c-1.415-0.68-2.966-1.113-4.606-1.238V12h-2v2.051c-1.64,0.126-3.192,0.558-4.606,1.238l-1.027-1.779l-1.732,1
		l1.024,1.773c-1.321,0.908-2.467,2.053-3.375,3.375l-1.773-1.023l-1,1.732l1.779,1.027c-0.68,1.415-1.113,2.966-1.238,4.607H8v2
		h2.051c0.126,1.64,0.558,3.192,1.238,4.607L9.51,33.635l1,1.732l1.773-1.023c0.908,1.321,2.053,2.467,3.375,3.375l-1.024,1.773
		l1.732,1l1.027-1.779c1.415,0.68,2.966,1.113,4.606,1.238V42h2v-2.051c1.64-0.126,3.192-0.558,4.606-1.238l1.027,1.779l1.732-1
		l-1.024-1.773c1.321-0.908,2.467-2.053,3.375-3.375l1.773,1.023l1-1.732l-1.779-1.027c0.68-1.415,1.113-2.966,1.238-4.607H38v-2
		h-2.051C35.824,24.36,35.391,22.808,34.711,21.393z M23,38c-6.065,0-11-4.935-11-11s4.935-11,11-11s11,4.935,11,11S29.065,38,23,38
		z"/>
	<path d="M23,20c-3.86,0-7,3.141-7,7s3.14,7,7,7c1.731,0,3.393-0.637,4.678-1.792l-1.337-1.488C25.423,31.546,24.236,32,23,32
		c-2.757,0-5-2.243-5-5s2.243-5,5-5s5,2.243,5,5c0,0.879-0.231,1.743-0.668,2.499l1.731,1.002C29.676,29.441,30,28.23,30,27
		C30,23.141,26.86,20,23,20z"/>
	<polygon points="24,30 24,28 26,28 26,26 24,26 24,24 22,24 22,26 20,26 20,28 22,28 22,30 	"/>
</g>
</svg>
