<svg xmlns="http://www.w3.org/2000/svg" viewBox="0 0 16.68 13.359">
  <defs>
    <style>
      .cls-1 {
        fill: #707070;
      }
    </style>
  </defs>
  <path id="email-icon" class="cls-1" d="M15-14.18a1.621,1.621,0,0,1,1.191.488A1.621,1.621,0,0,1,16.68-12.5v10a1.621,1.621,0,0,1-.488,1.191A1.621,1.621,0,0,1,15-.82H1.68A1.621,1.621,0,0,1,.488-1.309,1.621,1.621,0,0,1,0-2.5v-10a1.621,1.621,0,0,1,.488-1.191A1.621,1.621,0,0,1,1.68-14.18Zm0,3.359V-12.5L8.32-8.32,1.68-12.5v1.68L8.32-6.68Z" transform="translate(0 14.18)"/>
</svg>
