<?xml version="1.0" encoding="utf-8"?>
<!-- Generator: Adobe Illustrator 22.0.1, SVG Export Plug-In . SVG Version: 6.00 Build 0)  -->
<svg version="1.1" id="Layer_1" xmlns="http://www.w3.org/2000/svg" xmlns:xlink="http://www.w3.org/1999/xlink" x="0px" y="0px"
	 viewBox="0 0 250 70.111" style="enable-background:new 0 0 250 70.111;" xml:space="preserve">
<style type="text/css">
	.st0{fill:#FFFFFF;}
</style>
<g>
	<g>
		<g>
			<rect x="209.733" y="32.6961" class="st0" width="8.3903" height="15.9149"/>
			<rect x="127.2536" y="32.6961" class="st0" width="8.3903" height="15.9149"/>
			<path class="st0" d="M21.9739,20.1143v-0.0037h-7.7235c-3.2312,0-5.86-2.6291-5.86-5.8601s2.6288-5.8601,5.86-5.8601h38.6088V0
				H14.2503C6.3927,0,0,6.3927,0,14.2505S6.3927,28.501,14.2503,28.501h7.5778c3.2312,0,5.86,2.6285,5.86,5.8596
				s-2.6288,5.8601-5.86,5.8601H0v8.3903h21.9739v-0.0037c7.7904-0.0788,14.1046-6.4379,14.1046-14.2468
				C36.0785,26.5522,29.7643,20.1931,21.9739,20.1143z"/>
			<path class="st0" d="M201.3427,0h-41.3924v0.0011c-11.3823,0-21.0437,7.5006-24.3064,17.8179V0h-8.3904v20.1106h-8.3903V16.501
				c0-9.0988-7.4023-16.501-16.501-16.501s-16.501,7.4022-16.501,16.501v3.6096h-8.3903V0h-8.3903v20.1106H52.8592v-7.5251h-8.3903
				V48.611h8.3903V28.501h16.2213V48.611h8.3903V28.501h16.7807v-8.3903V16.501c0-4.4721,3.6384-8.1107,8.1107-8.1107
				c4.4723,0,8.1107,3.6385,8.1107,8.1107v3.6096h-7.8309v8.3903h7.8309V48.611h8.3903V28.501h12.5855
				c11.0889,0,20.1104,9.0213,20.1104,20.1101h8.3904c0-11.5652-6.9286-21.5363-16.8495-25.9999
				c1.3726-8.0613,8.4037-14.2197,16.8503-14.2197V8.3903h41.3924V0z"/>
			<path class="st0" d="M240.7328,27.5999C246.1398,25.5748,250,20.3558,250,14.2505C250,6.3927,243.6073,0,235.7497,0h-9.2359
				v8.3903h9.2359c3.2312,0,5.86,2.6291,5.86,5.8601s-2.6288,5.8601-5.86,5.8601h-17.6261h-0.0001V0h-8.3904v20.1106h-24.6117
				v8.3903h36.3778c11.0889,0,20.1105,9.0213,20.1105,20.1101H250C250,40.3022,246.4243,32.8141,240.7328,27.5999z"/>
			<polygon class="st0" points="176.731,12.5855 168.3407,12.5855 168.3407,48.611 176.731,48.611 201.3427,48.611 
				201.3427,40.2207 176.731,40.2207 			"/>
			<rect x="85.8612" y="32.6961" class="st0" width="8.3903" height="15.9149"/>
		</g>
	</g>
	<g>
		<path class="st0" d="M2.5996,67.3219c0.5009,0.5852,1.1799,0.8776,2.0359,0.8776c0.8565,0,1.535-0.2924,2.0364-0.8776
			c0.5015-0.5847,0.7516-1.3787,0.7516-2.3814v-6.0634H9.272v6.1421c0,1.577-0.4337,2.7913-1.3001,3.6426
			c-0.8669,0.8514-1.9791,1.277-3.3365,1.277c-1.3569,0-2.469-0.4257-3.3354-1.277C0.4326,67.8105,0,66.5963,0,65.0192v-6.1421
			h1.848v6.0634C1.848,65.9432,2.0987,66.7372,2.5996,67.3219z"/>
		<path class="st0" d="M13.5158,58.8771h1.848V69.829h-1.848V58.8771z"/>
		<path class="st0" d="M33.6729,60.311c1.0543,0.9557,1.5819,2.2847,1.5819,3.9874c0,1.7027-0.5118,3.0497-1.535,4.0421
			c-1.0237,0.9923-2.5898,1.4885-4.6988,1.4885h-3.6336V58.8771h3.7593C31.1094,58.8771,32.6181,59.3553,33.6729,60.311z
			 M33.3911,64.3454c0-2.5071-1.4361-3.7601-4.3072-3.7601h-1.848v7.5044h2.0517c1.3257,0,2.3412-0.3158,3.0459-0.9475
			C33.0382,66.5099,33.3911,65.5777,33.3911,64.3454z"/>
		<path class="st0" d="M46.672,58.8771v1.7393h-5.8421v2.8984h5.2473v1.6454h-5.2473v2.9295h6.03v1.7393h-7.878V58.8771H46.672z"/>
		<path class="st0" d="M55.5682,69.829h-2.0676l-4.4006-10.9519h2.067l3.3671,8.1787l3.3676-8.1787h2.0675L55.5682,69.829z"/>
		<path class="st0" d="M70.572,58.8771v1.7393h-5.8416v2.8984h5.2467v1.6454h-5.2467v2.9295h6.0295v1.7393h-7.878V58.8771H70.572z"
			/>
		<path class="st0" d="M74.4722,69.829V58.8771h1.848v9.1973h4.9965v1.7546H74.4722z"/>
		<path class="st0" d="M93.533,68.317c-1.1067,1.0814-2.4745,1.6219-4.1034,1.6219c-1.6289,0-2.9967-0.5404-4.1034-1.6219
			c-1.1067-1.0809-1.6606-2.4284-1.6606-4.0421s0.5539-2.9612,1.6606-4.0426c1.1067-1.0809,2.4745-1.6213,4.1034-1.6213
			c1.6289,0,2.9967,0.5404,4.1034,1.6213c1.1067,1.0814,1.66,2.429,1.66,4.0426S94.6397,67.2361,93.533,68.317z M92.1783,61.4624
			c-0.7467-0.7727-1.6628-1.1596-2.7487-1.1596c-1.0859,0-2.0025,0.3869-2.7487,1.1596c-0.7467,0.7732-1.1198,1.7104-1.1198,2.8126
			s0.3731,2.0393,1.1198,2.812c0.7462,0.7732,1.6628,1.1596,2.7487,1.1596c1.0859,0,2.002-0.3863,2.7487-1.1596
			c0.7462-0.7727,1.1198-1.7098,1.1198-2.812S92.9244,62.2356,92.1783,61.4624z"/>
		<path class="st0" d="M106.266,59.8329c0.762,0.6372,1.1433,1.6191,1.1433,2.9459c0,1.3262-0.3895,2.2978-1.1668,2.9142
			c-0.7784,0.6164-1.9714,0.924-3.5785,0.924h-1.9425v3.212h-1.8485V58.8771h3.7593
			C104.2924,58.8771,105.5034,59.1963,106.266,59.8329z M104.9583,64.3531c0.3704-0.3918,0.5561-0.9661,0.5561-1.7235
			c0-0.7568-0.2349-1.2924-0.7047-1.606c-0.4703-0.3131-1.2061-0.4699-2.209-0.4699h-1.8791v4.3869h2.1457
			C103.8904,64.9405,104.5874,64.7449,104.9583,64.3531z"/>
		<path class="st0" d="M118.6232,58.8771v1.7393h-5.8421v2.8984h5.2467v1.6454h-5.2467v2.9295h6.03v1.7393h-7.878V58.8771H118.6232z
			"/>
		<path class="st0" d="M131.2623,62.434c0,1.8071-0.7888,2.9454-2.3653,3.4153l2.8662,3.9798h-2.3494l-2.6154-3.682h-2.4275v3.682
			h-1.8485V58.8771h4.0728c1.6704,0,2.8656,0.282,3.5867,0.8464C130.9018,60.2875,131.2623,61.1908,131.2623,62.434z
			 M128.8031,63.9848c0.3758-0.3235,0.5637-0.8432,0.5637-1.559c0-0.7153-0.1934-1.206-0.579-1.4727
			c-0.3867-0.2661-1.0761-0.3995-2.0676-0.3995h-2.3494v3.9169h2.3024C127.7172,64.4706,128.4273,64.3088,128.8031,63.9848z"/>
		<path class="st0" d="M143.8544,69.9542c-1.0237,0-1.8955-0.2842-2.6154-0.8536c-0.7211-0.5694-1.081-1.3503-1.081-2.3426
			c0-1.1803,0.856-2.2301,2.5685-3.1492c-0.4283-0.4907-0.7281-0.8929-0.9008-1.2066c-0.1721-0.3131-0.2578-0.7098-0.2578-1.1907
			c0-0.8355,0.3075-1.4776,0.9237-1.9268c0.6156-0.4492,1.3416-0.6738,2.1768-0.6738c0.8358,0,1.5453,0.2142,2.1304,0.6421
			c0.5845,0.4284,0.8773,1.029,0.8773,1.8022c0,1.0339-0.8358,2.0109-2.5062,2.9295c0.8352,1.024,1.5142,1.8071,2.0364,2.3503
			c0.3234-0.4803,0.5736-1.0393,0.7516-1.6765l1.2837,0.9087c-0.2709,0.7208-0.579,1.353-0.9237,1.8962
			c0.4179,0.4284,0.9499,0.9454,1.5978,1.5508l-1.175,1.0967l-1.4405-1.4257C146.3808,69.5312,145.2321,69.9542,143.8544,69.9542z
			 M142.4915,67.9881c0.3971,0.2978,0.9237,0.4464,1.5819,0.4464c0.6577,0,1.3574-0.3027,2.0987-0.9087
			c-1.0548-1.1071-1.89-2.0366-2.5056-2.7885c-1.1804,0.6372-1.7698,1.3372-1.7698,2.0994
			C141.8967,67.3066,142.0944,67.6902,142.4915,67.9881z M144.6607,60.0055c-0.3496,0-0.6631,0.1093-0.9395,0.329
			c-0.2769,0.2191-0.4151,0.4754-0.4151,0.7678c0,0.2924,0.0705,0.5563,0.2114,0.7913c0.1409,0.235,0.384,0.5612,0.7281,0.9792
			c1.1799-0.5852,1.7699-1.1284,1.7699-1.6295c0-0.418-0.1387-0.729-0.4151-0.9322
			C145.3238,60.1072,145.0103,60.0055,144.6607,60.0055z"/>
		<path class="st0" d="M167.1801,60.311c1.0543,0.9557,1.5819,2.2847,1.5819,3.9874c0,1.7027-0.5113,3.0497-1.535,4.0421
			c-1.0237,0.9923-2.5892,1.4885-4.6988,1.4885h-3.6336V58.8771h3.7593C164.6171,58.8771,166.1258,59.3553,167.1801,60.311z
			 M166.8982,64.3454c0-2.5071-1.4355-3.7601-4.3066-3.7601h-1.8485v7.5044h2.0517c1.3263,0,2.3412-0.3158,3.0459-0.9475
			C166.5459,66.5099,166.8982,65.5777,166.8982,64.3454z"/>
		<path class="st0" d="M180.1797,58.8771v1.7393h-5.8421v2.8984h5.2467v1.6454h-5.2467v2.9295h6.03v1.7393h-7.878V58.8771H180.1797z
			"/>
		<path class="st0" d="M187.3918,60.3187c-0.5381,0-0.9789,0.1098-1.3235,0.329c-0.3447,0.2197-0.5168,0.5514-0.5168,0.9951
			c0,0.4443,0.1721,0.7831,0.5168,1.0186c0.3447,0.235,1.0783,0.488,2.2003,0.7596c1.1225,0.2716,1.9687,0.653,2.5379,1.1437
			c0.5686,0.4913,0.8532,1.2142,0.8532,2.1699c0,0.9557-0.3605,1.7317-1.0805,2.3268c-0.7211,0.5956-1.6661,0.8929-2.835,0.8929
			c-1.7125,0-3.2316-0.5896-4.5579-1.7705l1.1591-1.394c1.1067,0.9607,2.2555,1.441,3.4457,1.441
			c0.5954,0,1.0674-0.1273,1.4175-0.3836c0.3496-0.2557,0.5249-0.5956,0.5249-1.0186s-0.165-0.7519-0.4938-0.9869
			s-0.8953-0.4492-1.6994-0.6426c-0.8041-0.1929-1.4148-0.3705-1.8327-0.5322c-0.4173-0.1623-0.7882-0.3738-1.1116-0.635
			c-0.6473-0.4907-0.9712-1.2426-0.9712-2.2557s0.3682-1.794,1.104-2.3426c0.7363-0.5481,1.6475-0.8224,2.7334-0.8224
			c0.6992,0,1.394,0.1148,2.0829,0.3448c0.6894,0.2295,1.2842,0.5536,1.7857,0.971l-0.9865,1.3945
			c-0.3239-0.2924-0.7626-0.5328-1.3159-0.7208C188.475,60.4126,187.9293,60.3187,187.3918,60.3187z"/>
		<path class="st0" d="M195.2933,58.8771h1.8479V69.829h-1.8479V58.8771z"/>
		<path class="st0" d="M209.1068,64.5023h1.8485v3.7443c-1.0335,1.1388-2.5116,1.7077-4.4323,1.7077
			c-1.6191,0-2.9738-0.5322-4.0646-1.5978s-1.6366-2.4131-1.6366-4.0426c0-1.629,0.5561-2.9869,1.6677-4.0732
			c1.1122-1.0863,2.4565-1.6295,4.0335-1.6295c1.5765,0,2.8864,0.4596,3.9308,1.3787l-0.9865,1.4098
			c-0.4283-0.365-0.8587-0.6186-1.2924-0.7596c-0.4332-0.141-0.9374-0.2115-1.5109-0.2115c-1.1067,0-2.0364,0.3579-2.7881,1.0732
			c-0.7516,0.7153-1.1275,1.6557-1.1275,2.8202c0,1.1645,0.3649,2.0994,1.0958,2.8044s1.6158,1.0574,2.6548,1.0574
			c1.039,0,1.9086-0.224,2.6078-0.6732V64.5023z"/>
		<path class="st0" d="M222.9367,58.8771h1.8474V69.829h-2.0047l-6.2021-7.9907v7.9907h-1.848V58.8771h1.848l6.3594,8.1787V58.8771z
			"/>
		<path class="st0" d="M236.8595,58.8771v1.7393h-5.8416v2.8984h5.2467v1.6454h-5.2467v2.9295h6.0295v1.7393h-7.878V58.8771
			H236.8595z"/>
		<path class="st0" d="M249.4986,62.434c0,1.8071-0.7882,2.9454-2.3647,3.4153L250,69.829h-2.3489l-2.616-3.682h-2.4275v3.682
			h-1.8479V58.8771h4.0717c1.6704,0,2.8667,0.282,3.5867,0.8464C249.1386,60.2875,249.4986,61.1908,249.4986,62.434z
			 M247.0399,63.9848c0.3764-0.3235,0.5643-0.8432,0.5643-1.559c0-0.7153-0.1934-1.206-0.5801-1.4727
			c-0.3862-0.2661-1.075-0.3995-2.067-0.3995h-2.3494v3.9169h2.3024C245.9539,64.4706,246.6641,64.3088,247.0399,63.9848z"/>
	</g>
</g>
</svg>
