<?xml version="1.0" encoding="utf-8"?>
<!-- Generator: Adobe Illustrator 22.1.0, SVG Export Plug-In . SVG Version: 6.00 Build 0)  -->
<svg version="1.1" id="Layer_1" xmlns="http://www.w3.org/2000/svg" xmlns:xlink="http://www.w3.org/1999/xlink" x="0px" y="0px"
	 viewBox="0 0 250 69.9424667" style="enable-background:new 0 0 250 69.9424667;" xml:space="preserve">
<style type="text/css">
	.st0{fill:#FFFFFF;}
</style>
<g>
	<path class="st0" d="M2.1132903,59.274826v3.4364357h5.54877v1.9511909h-5.54877v5.1549225H0.0009559V57.3056068h8.3411818
		L8.3246574,59.274826H2.1132903z"/>
	<path class="st0" d="M22.0709457,61.369133c0,2.0642662-0.9007607,3.3648758-2.7028275,3.9018402l3.2758389,4.546402h-2.6853466
		l-2.9890594-4.2060928h-2.7743845v4.2060928h-2.1123352V57.3056068h4.6540194c1.9091301,0,3.2752914,0.3222847,4.0990314,0.9668579
		C21.6596222,58.9164886,22.0709457,59.9488945,22.0709457,61.369133z M19.2605076,63.1411552
		c0.4298973-0.3698082,0.6445713-0.9635773,0.6445713-1.7813072c0-0.8171844-0.2206841-1.3781815-0.6620502-1.6824379
		c-0.4419136-0.3042603-1.2290554-0.456665-2.3630619-0.456665h-2.6848001v4.4748497h2.6312685
		C18.0194359,63.6955948,18.8311577,63.5109673,19.2605076,63.1411552z"/>
	<path class="st0" d="M36.8561935,68.0901489c-1.2651062,1.2350616-2.8284645,1.8523178-4.6900711,1.8523178
		s-3.424963-0.6172562-4.6895237-1.8523178c-1.2651062-1.2350616-1.8971138-2.7743835-1.8971138-4.6179657
		s0.6320076-3.3829041,1.8971138-4.6179695c1.2645607-1.2350616,2.8279171-1.8528671,4.6895237-1.8528671
		s3.4249649,0.6178055,4.6900711,1.8528671c1.2640152,1.2350655,1.8965683,2.7743874,1.8965683,4.6179695
		S38.1202087,66.8550873,36.8561935,68.0901489z M35.3075867,60.2591629
		c-0.8537827-0.8827362-1.9003906-1.3246498-3.1414642-1.3246498c-1.2410698,0-2.2882252,0.4419136-3.1409149,1.3246498
		c-0.8537827,0.8832779-1.2804012,1.9539223-1.2804012,3.2130203c0,1.2590942,0.4266186,2.3297424,1.2804012,3.2130203
		c0.8526897,0.8827362,1.8998451,1.3240967,3.1409149,1.3240967c1.2410736,0,2.2876816-0.4413605,3.1414642-1.3240967
		c0.8526878-0.8832779,1.2798538-1.9539261,1.2798538-3.2130203C36.5874405,62.2130852,36.1602745,61.1424408,35.3075867,60.2591629
		z"/>
	<path class="st0" d="M52.0702477,57.3056068h2.1117859v12.5117683h-2.2909546l-7.0880928-9.1288643v9.1288643h-2.1117897
		V57.3056068h2.1117897l7.2672615,9.3435402V57.3056068z"/>
	<path class="st0" d="M63.6506691,59.2387733v10.5786018h-2.1117897V59.2387733h-3.7942276v-1.9331665h9.7013321v1.9331665
		H63.6506691z"/>
	<path class="st0" d="M69.5402985,65.4140854v-1.879631h5.9420624v1.879631H69.5402985z"/>
	<path class="st0" d="M88.5671463,57.3056068v1.9866982h-6.6767654v3.3113441h5.9961395v1.8796349h-5.9961395v3.3473969h6.8914413
		v1.9866943h-9.0037766V57.3056068H88.5671463z"/>
	<path class="st0" d="M102.1348114,57.3056068h2.1117859v12.5117683h-2.2909546l-7.088089-9.1288643v9.1288643h-2.1123352
		V57.3056068h2.1123352l7.2672577,9.3435402V57.3056068z"/>
	<path class="st0" d="M118.4588394,58.9432526c1.2050171,1.0919456,1.808075,2.6105118,1.808075,4.5556946
		s-0.5855789,3.4845047-1.7545471,4.6179657c-1.1695099,1.1340103-2.9595642,1.7004623-5.3695984,1.7004623h-4.152565V57.3056068
		h4.2956772C115.5287704,57.3056068,117.253273,57.8518524,118.4588394,58.9432526z M118.1365509,63.5524788
		c0-2.8639679-1.6409225-4.295681-4.9227676-4.295681h-2.1117935v8.5738831h2.3444901
		c1.5152893,0,2.6766052-0.3610687,3.4817734-1.0832062C117.7334213,66.0258865,118.1365509,64.960701,118.1365509,63.5524788z"/>
	<path class="st0" d="M140.0449677,58.9432526c1.2050171,1.0919456,1.808075,2.6105118,1.808075,4.5556946
		s-0.5855713,3.4845047-1.7545471,4.6179657c-1.1695099,1.1340103-2.959549,1.7004623-5.3695984,1.7004623h-4.1525574V57.3056068
		h4.2956848C137.1148987,57.3056068,138.8394012,57.8518524,140.0449677,58.9432526z M139.7226868,63.5524788
		c0-2.8639679-1.6409302-4.295681-4.9227753-4.295681h-2.1117859v8.5738831h2.3444824
		c1.5152893,0,2.6766205-0.3610687,3.481781-1.0832062C139.3195496,66.0258865,139.7226868,64.960701,139.7226868,63.5524788z"/>
	<path class="st0" d="M154.6330261,57.3056068v1.9866982h-6.6767731v3.3113441h5.9961548v1.8796349h-5.9961548v3.3473969h6.891449
		v1.9866943h-9.0037842V57.3056068H154.6330261z"/>
	<path class="st0" d="M164.5310059,69.8173752h-2.3630676l-5.0292816-12.5117683h2.3625183l3.8488464,9.3435402l3.8477631-9.3435402
		h2.3630524L164.5310059,69.8173752z"/>
	<path class="st0" d="M181.4100189,57.3056068v1.9866982h-6.6762238v3.3113441h5.9961395v1.8796349h-5.9961395v3.3473969h6.891449
		v1.9866943H172.62146V57.3056068H181.4100189z"/>
	<path class="st0" d="M185.5986328,69.8173752V57.3056068h2.1117859v10.5070457h5.7099152v2.0047226H185.5986328z"/>
	<path class="st0" d="M207.1136322,68.0901489c-1.2651062,1.2350616-2.8279114,1.8523178-4.6895142,1.8523178
		c-1.861618,0-3.4249725-0.6172562-4.6900787-1.8523178s-1.89711-2.7743835-1.89711-4.6179657
		s0.6320038-3.3829041,1.89711-4.6179695c1.2651062-1.2350616,2.8284607-1.8528671,4.6900787-1.8528671
		c1.8616028,0,3.424408,0.6178055,4.6895142,1.8528671c1.2645721,1.2350655,1.8971252,2.7743874,1.8971252,4.6179695
		S208.3782043,66.8550873,207.1136322,68.0901489z M205.565033,60.2591629
		c-0.853241-0.8827362-1.8998413-1.3246498-3.1409149-1.3246498s-2.2887726,0.4419136-3.1414642,1.3246498
		c-0.8537903,0.8832779-1.2798615,1.9539223-1.2798615,3.2130203c0,1.2590942,0.4260712,2.3297424,1.2798615,3.2130203
		c0.8526917,0.8827362,1.9003906,1.3240967,3.1414642,1.3240967s2.287674-0.4413605,3.1409149-1.3240967
		c0.8532257-0.8832779,1.2803955-1.9539261,1.2803955-3.2130203
		C206.8454285,62.2130852,206.4182587,61.1424408,205.565033,60.2591629z"/>
	<path class="st0" d="M221.3974304,58.3975525c0.8707123,0.7281494,1.3066254,1.8495903,1.3066254,3.3648796
		c0,1.515831-0.4446411,2.6258049-1.3339386,3.3293724c-0.8892822,0.7041092-2.2527161,1.0564346-4.0897369,1.0564346h-2.2194061
		v3.669136h-2.1123352V57.3056068h4.2962341C219.1414337,57.3056068,220.5256195,57.6699524,221.3974304,58.3975525z
		 M219.9029083,63.5617676c0.4227905-0.4479218,0.6347351-1.1039658,0.6347351-1.9692192s-0.2682037-1.4765053-0.8051758-1.8348427
		c-0.5369568-0.3577919-1.3781738-0.5369606-2.5236511-0.5369606h-2.1478424v5.0118141h2.4521027
		C218.6825867,64.2325592,219.4790192,64.00914,219.9029083,63.5617676z"/>
	<path class="st0" d="M235.2513275,57.3056068v1.9866982h-6.6767578v3.3113441h5.9961395v1.8796349h-5.9961395v3.3473969h6.8914337
		v1.9866943h-9.0037689V57.3056068H235.2513275z"/>
	<path class="st0" d="M249.4275208,61.369133c0,2.0642662-0.9013062,3.3648758-2.7028351,3.9018402l3.2752991,4.546402h-2.6847992
		l-2.9896088-4.2060928h-2.7738342v4.2060928h-2.1123352V57.3056068h4.6534729c1.909668,0,3.2758331,0.3222847,4.0990295,0.9668579
		C249.0156403,58.9164886,249.4275208,59.9488945,249.4275208,61.369133z M246.6170807,63.1411552
		c0.4298859-0.3698082,0.6440277-0.9635773,0.6440277-1.7813072c0-0.8171844-0.2206879-1.3781815-0.6620636-1.6824379
		c-0.4413605-0.3042603-1.2290497-0.456665-2.3625031-0.456665h-2.6847992v4.4748497h2.630722
		C245.3754578,63.6955948,246.1871796,63.5109673,246.6170807,63.1411552z"/>
	<g>
		<path class="st0" d="M21.9738503,20.1142902v-0.0036869h-7.7235136c-3.2311831,0-5.859993-2.6290836-5.859993-5.8601294
			s2.6288099-5.8601303,5.859993-5.8601303h38.6088257V0H14.2503366C6.3927207,0,0,6.3927207,0,14.250474
			s6.3927207,14.250474,14.2503366,14.250474h7.5778017c3.231184,0,5.8599949,2.6285362,5.8599949,5.8595829
			s-2.6288109,5.8601303-5.8599949,5.8601303H0v8.3903427h21.9738503v-0.003685
			c7.7904282-0.0788307,14.1046257-6.4378891,14.1046257-14.246788
			C36.078476,26.5521793,29.7642784,20.193121,21.9738503,20.1142902z"/>
		<rect x="127.2534027" y="32.6961174" class="st0" width="8.3903437" height="15.9148865"/>
		<path class="st0" d="M201.3426971,0h-41.3923492v0.0010925c-11.3884277,0-21.049469,7.5105114-24.3065948,17.8366833V0h-8.3903503
			v20.1106033h-8.3902054V16.501009C118.8631973,7.4021835,111.4608765,0,102.3621902,0S85.8611755,7.4021835,85.8611755,16.501009
			v3.6095943h-8.3903427V0h-8.3903427v20.1106033H52.859024V12.585515h-8.3903427v36.0254898h8.3903427V28.500948h16.2214661
			v20.1100559h8.3903427V28.500948h16.7806931v-8.3903446V16.501009c0-4.4721193,3.6384048-8.1106653,8.1106644-8.1106653
			c4.4722519,0,8.1106644,3.638546,8.1106644,8.1106653v3.6095943h-7.830986v8.3903446h7.830986v20.1100559h8.3903427V28.500948
			h12.5855179c11.0889282,0,20.1104584,9.0212574,20.1104584,20.1100559h8.3903503
			c0-11.5651932-6.9285889-21.5363407-16.8495178-25.9998894c1.3725891-8.0612984,8.4037323-14.2196789,16.8503418-14.2196789
			v-0.001092h41.3923492V0z"/>
		<rect x="209.7330475" y="32.6961174" class="st0" width="8.3903437" height="15.9148865"/>
		<path class="st0" d="M240.7327881,27.5999146C246.1398163,25.5748425,250,20.3557663,250,14.250474
			C250,6.3927207,243.6072845,0,235.7496643,0h-9.2359314v8.3903437h9.2359314c3.2311859,0,5.8599854,2.6290827,5.8599854,5.8601303
			s-2.6287994,5.8601294-5.8599854,5.8601294h-14.250473h-3.3758087V0h-8.3903351v20.1106033h-0.0001373h-24.6116791v8.3903446
			h24.6116791h0.0001373h8.3903351h3.3758087c11.0889282,0,20.1104584,9.0212574,20.1104584,20.1100559H250
			C250,40.3022232,246.4242706,32.8141403,240.7327881,27.5999146z"/>
		<polygon class="st0" points="176.7310333,12.585515 168.340683,12.585515 168.340683,48.6110039 168.340683,48.6110039 
			176.7310333,48.6110039 201.3426971,48.6110039 201.3426971,40.2206612 176.7310333,40.2206612 		"/>
		<rect x="85.8610458" y="32.6961174" class="st0" width="8.3903437" height="15.9148865"/>
	</g>
</g>
</svg>
