<?xml version="1.0" encoding="utf-8"?>
<!-- Generator: Adobe Illustrator 22.1.0, SVG Export Plug-In . SVG Version: 6.00 Build 0)  -->
<svg version="1.1" id="Layer_1" xmlns="http://www.w3.org/2000/svg" xmlns:xlink="http://www.w3.org/1999/xlink" x="0px" y="0px"
	 viewBox="0 0 52.114 99.422" style="enable-background:new 0 0 52.114 99.422;" xml:space="preserve">
<g>
	<path d="M22.125,8.016h7.654c0.916,0,1.663,0.734,1.663,1.604c0,0.868-0.747,1.603-1.663,1.603h-7.654
		c-0.917,0-1.665-0.735-1.665-1.603C20.46,8.751,21.208,8.016,22.125,8.016z"/>
	<path d="M43.858,99.422H8.043C3.608,99.422,0,95.728,0,91.187V8c0-4.411,3.608-8,8.043-8h35.815c4.553,0,8.256,3.588,8.256,8
		v83.188C52.114,95.651,48.333,99.422,43.858,99.422z M8.043,2C4.654,2,2,4.635,2,8v83.188c0,3.438,2.711,6.235,6.043,6.235h35.815
		c3.391,0,6.256-2.855,6.256-6.235V8c0-3.308-2.807-6-6.256-6C43.858,2,8.043,2,8.043,2z M47.704,80.178H4.009V18.041h43.695V80.178
		z M6.009,78.178h39.695V20.041H6.009V78.178z"/>
	<path d="M25.952,92.945c-2.591,0-4.69-2.101-4.69-4.692c0-2.588,2.099-4.689,4.69-4.689s4.688,2.101,4.688,4.689
		C30.64,90.844,28.543,92.945,25.952,92.945z"/>
</g>
</svg>
