<?xml version="1.0" encoding="utf-8"?>
<!-- Generator: Adobe Illustrator 22.1.0, SVG Export Plug-In . SVG Version: 6.00 Build 0)  -->
<svg version="1.1" id="Layer_1" xmlns="http://www.w3.org/2000/svg" xmlns:xlink="http://www.w3.org/1999/xlink" x="0px" y="0px"
	 viewBox="0 0 66 82" style="enable-background:new 0 0 66 82;" xml:space="preserve">
<style type="text/css">
	.st0{fill:#C9141B;}
</style>
<path class="st0" d="M47.8,54.4c1.2,0.3,2.9,0.2,4-0.1c3.5-0.9,3.6-3.5,3.7-4.6c0.1-1.5-0.8-4.1-4.7-4.8c-1.8-0.3-3-0.3-4.1-0.3
	s-2,0.1-3.4,0.3c-0.4,0.1-0.9,0.2-1.2,0.2c-1-1-1.7-2-2.8-3.5c-2.1-3-3.4-5.1-5.5-8.8c-0.3-0.5-0.6-1.1-0.9-1.6
	c0.2-0.9,0.4-1.9,0.6-3.1l0.3-1.4c0.8-3.8,1-5.1,0.4-8.2c-0.7-3.4-3.1-4.2-4.2-4.1l0,0c-0.6,0-3,0.4-4,3.9c-0.7,2.4-0.6,4.2,0,6.7
	c0.4,1.8,1.3,4,2.8,6.7c-0.5,2.1-1.1,4-2.2,7.2c-1.1,3.3-1.6,4.6-1.8,5.4c-0.3,0.9-0.3,0.9-0.9,2.4l-0.1,0.2
	c-0.7,1.9-1.9,4.2-2.7,5.7c-1.2,0.6-2.4,1.2-4.1,2.2c-3.6,2.1-6.1,3.6-7,6c-0.5,1.3-1.7,4.5,0.9,6.6c0.9,0.8,2.1,1.2,3.2,1.2
	c1.2,0,2.3-0.4,3.2-1.2c1.2-1.1,1.7-2.1,2.7-4c0.3-0.5,0.6-1.1,1-1.9c1.6-3.1,2.6-5.2,2.8-5.5c0-0.1,0.1-0.2,0.2-0.3
	c0.7-0.3,1.5-0.6,2.4-1c3.3-1.4,4.7-1.8,7.7-2.8l1.4-0.5c1.1-0.4,1.9-0.6,2.7-0.9c1-0.4,1.8-0.6,2.6-0.9c0.7,0.6,1.4,1.3,2.3,2
	C45.1,53.2,46.4,54,47.8,54.4z M46.7,48.6c1,0,2,0,3.4,0.3c1,0.2,1.3,0.6,1.3,0.7c0,0.2,0,0.6,0,0.7c0,0-0.1,0.1-0.6,0.2
	c-0.7,0.2-1.7,0.2-2,0.1c-0.5-0.2-1.3-0.5-3-1.9C46.2,48.6,46.4,48.6,46.7,48.6z M17.5,59.6c-0.4,0.7-0.7,1.4-1,1.9
	c-1,1.9-1.2,2.3-1.8,2.9c-0.4,0.3-0.9,0.1-1.2-0.1c-0.1-0.1-0.4-0.3,0.3-2.1c0.4-1,2.3-2.2,4-3.3C17.7,59.2,17.6,59.4,17.5,59.6z
	 M29.9,19.4c0.1-0.3,0.2-0.6,0.3-0.7c0.1,0.1,0.1,0.3,0.2,0.6c0.4,2.2,0.4,2.9-0.2,5.8c-0.1-0.3-0.2-0.6-0.2-0.8
	C29.5,22.1,29.4,21,29.9,19.4z M36.9,46.6c-0.7,0.3-1.5,0.5-2.6,0.9L32.9,48c-2.5,0.8-3.9,1.3-6.2,2.2c0.3-0.6,0.5-1.2,0.8-1.8
	l0.1-0.2c0.6-1.6,0.6-1.6,1-2.6c0.2-0.7,0.7-2.1,1.8-5.3c0.5-1.3,0.8-2.5,1.1-3.5c1.5,2.6,2.7,4.6,4.5,7.1c0.7,0.9,1.2,1.7,1.8,2.4
	C37.5,46.4,37.2,46.5,36.9,46.6z M66,12.1C66,5.4,60.7,0,54.1,0H11.9C5.3,0,0,5.4,0,12.1V70c0,6.6,5.3,12,11.9,12h32.2
	c0.1,0,0.3,0,0.4,0C44.6,82,66,60.3,66,60.3V12.1z M4,69.9V12.1C4,7.7,7.6,4,11.9,4h42.2c4.4,0,7.9,3.6,7.9,8.1v45.8H49.1
	c-3.8,0-7,3.2-7,7V78H11.9C7.6,78,4,74.4,4,69.9z M59.2,61.9l-13,13.2V64.9c0-1.7,1.3-3,3-3H59.2z"/>
</svg>
