<svg xmlns="http://www.w3.org/2000/svg" viewBox="0 0 11.68 16.641">
  <defs>
    <style>
      .cls-1 {
        fill: #707070;
      }
    </style>
  </defs>
  <path id="pin-icon" class="cls-1" d="M1.7-14.121a5.612,5.612,0,0,1,4.121-1.7,5.677,5.677,0,0,1,4.141,1.7A5.58,5.58,0,0,1,11.68-10a7.965,7.965,0,0,1-.605,2.793,16.2,16.2,0,0,1-1.465,2.93Q8.75-2.93,7.891-1.738T6.445.156L5.82.82Q5.586.586,5.2.117T3.809-1.7q-1-1.348-1.777-2.617A17.858,17.858,0,0,1,.625-7.187,7.9,7.9,0,0,1,0-10,5.612,5.612,0,0,1,1.7-14.121ZM4.355-8.535A2,2,0,0,0,5.82-7.93,2.061,2.061,0,0,0,7.3-8.535,1.964,1.964,0,0,0,7.93-10,1.964,1.964,0,0,0,7.3-11.465,2.061,2.061,0,0,0,5.82-12.07a2,2,0,0,0-1.465.605A2,2,0,0,0,3.75-10,2,2,0,0,0,4.355-8.535Z" transform="translate(0 15.82)"/>
</svg>
