<?xml version="1.0" encoding="utf-8"?>
<!-- Generator: Adobe Illustrator 22.1.0, SVG Export Plug-In . SVG Version: 6.00 Build 0)  -->
<svg version="1.1"
	 id="Layer_1" xmlns:cc="http://creativecommons.org/ns#" xmlns:dc="http://purl.org/dc/elements/1.1/" xmlns:inkscape="http://www.inkscape.org/namespaces/inkscape" xmlns:rdf="http://www.w3.org/1999/02/22-rdf-syntax-ns#" xmlns:sodipodi="http://sodipodi.sourceforge.net/DTD/sodipodi-0.dtd" xmlns:svg="http://www.w3.org/2000/svg"
	 xmlns="http://www.w3.org/2000/svg" xmlns:xlink="http://www.w3.org/1999/xlink" x="0px" y="0px" viewBox="0 0 86 66"
	 style="enable-background:new 0 0 86 66;" xml:space="preserve">
<path d="M5,0C2.2473,0,0,2.2473,0,5v56c0,2.7527,2.2473,5,5,5h76c2.7527,0,5-2.2473,5-5V5c0-2.7527-2.2473-5-5-5H5z M5,2h76
	c1.6793,0,3,1.3207,3,3v9H2V5C2,3.3207,3.3207,2,5,2z M9,5C7.355,5,6,6.355,6,8s1.355,3,3,3s3-1.355,3-3S10.645,5,9,5z M18,5
	c-1.645,0-3,1.355-3,3s1.355,3,3,3s3-1.355,3-3S19.645,5,18,5z M27,5c-1.645,0-3,1.355-3,3s1.355,3,3,3s3-1.355,3-3S28.645,5,27,5z
	 M9,7c0.5641,0,1,0.4359,1,1S9.5641,9,9,9C8.4359,9,8,8.5641,8,8S8.4359,7,9,7z M18,7c0.5641,0,1,0.4359,1,1s-0.4359,1-1,1
	s-1-0.4359-1-1S17.4359,7,18,7z M27,7c0.5641,0,1,0.4359,1,1s-0.4359,1-1,1s-1-0.4359-1-1S26.4359,7,27,7z M2,16h82v45
	c0,1.6793-1.3207,3-3,3H5c-1.6793,0-3-1.3207-3-3V16z M8.8125,22C8.3344,22.0912,7.9914,22.5134,8,23v34
	c0.0001,0.5523,0.4477,0.9999,1,1h40c0.5523-0.0001,0.9999-0.4477,1-1V23c-0.0001-0.5523-0.4477-0.9999-1-1H9
	c-0.0312-0.0015-0.0625-0.0015-0.0938,0C8.875,21.9985,8.8437,21.9985,8.8125,22z M56.8438,22
	c-0.4905,0.0776-0.8498,0.5034-0.8438,1v13c0.0001,0.5523,0.4477,0.9999,1,1h20c0.5523-0.0001,0.9999-0.4477,1-1V23
	c0.0022-0.5176-0.3909-0.9514-0.9063-1c-0.0312-0.0015-0.0625-0.0015-0.0938,0H57C56.948,21.9959,56.8958,21.9959,56.8438,22z
	 M10,24h38v32H10V24z M58,24h18v11H58V24z M56.8125,42c-0.5523,0.0518-0.958,0.5415-0.9063,1.0938S56.4477,44.0518,57,44h20
	c0.5523,0.0078,1.0063-0.4336,1.0141-0.9859c0.0078-0.5523-0.4336-1.0063-0.9859-1.0141c-0.0094-0.0001-0.0189-0.0001-0.0283,0H57
	c-0.0312-0.0015-0.0625-0.0015-0.0938,0C56.875,41.9985,56.8437,41.9985,56.8125,42z M56.8125,49
	c-0.5523,0.0518-0.958,0.5415-0.9063,1.0938S56.4477,51.0518,57,51h20c0.5523,0.0078,1.0063-0.4336,1.0141-0.9859
	S77.5806,49.0078,77.0283,49c-0.0094-0.0001-0.0189-0.0001-0.0283,0H57c-0.0312-0.0015-0.0625-0.0015-0.0938,0
	C56.875,48.9985,56.8437,48.9985,56.8125,49z M56.8125,56c-0.5523,0.0518-0.958,0.5415-0.9063,1.0938S56.4477,58.0518,57,58h20
	c0.5523,0.0078,1.0063-0.4336,1.0141-0.9859S77.5806,56.0078,77.0283,56c-0.0094-0.0001-0.0189-0.0001-0.0283,0H57
	c-0.0312-0.0015-0.0625-0.0015-0.0938,0C56.875,55.9985,56.8437,55.9985,56.8125,56z"/>
</svg>
