<?xml version="1.0" encoding="utf-8"?>
<!-- Generator: Adobe Illustrator 22.1.0, SVG Export Plug-In . SVG Version: 6.00 Build 0)  -->
<svg version="1.1" id="Layer_1" xmlns="http://www.w3.org/2000/svg" xmlns:xlink="http://www.w3.org/1999/xlink" x="0px" y="0px"
	 viewBox="0 0 64 82" style="enable-background:new 0 0 64 82;" xml:space="preserve">
<style type="text/css">
	.st0{fill:#2B5896;}
</style>
<title>Noun_Project_50Icon_5px_grid</title>
<path class="st0" d="M64,21.6c0-0.1,0-0.2-0.1-0.3L43.4,0.6c-0.1-0.1-1-0.6-1-0.6C42.3,0,12,0,12,0C5.4,0,0,5.4,0,12v58
	c0,6.6,5.4,12,12,12h20c1.1,0,2-0.9,2-2s-0.9-2-2-2H12c-4.4,0-8-3.6-8-8V12c0-4.4,3.6-8,8-8h28v8c0,6.6,5.4,12,12,12h8v38
	c0,1.1,0.9,2,2,2s2-0.9,2-2V22C64,21.9,64,21.7,64,21.6z M44,12V6.8L57.2,20H52C47.6,20,44,16.4,44,12z"/>
<path class="st0" d="M12,44h40.5c1.1,0,2-0.9,2-2s-0.9-2-2-2H12c-1.1,0-2,0.9-2,2S10.9,44,12,44z"/>
<path class="st0" d="M12,34h40.5c1.1,0,2-0.9,2-2s-0.9-2-2-2H12c-1.1,0-2,0.9-2,2C10,33.1,10.9,34,12,34z"/>
<path class="st0" d="M12,14h20c1.1,0,2-0.9,2-2s-0.9-2-2-2H12c-1.1,0-2,0.9-2,2S10.9,14,12,14z"/>
<path class="st0" d="M15.6,54.7h-3.5c-0.6,0-1.2,0.2-1.6,0.6c-0.4,0.5-0.6,1.1-0.5,1.7v10.5c0,0.4,0,0.8,0.1,1.3
	c0.1,0.4,0.3,0.8,0.7,1s0.9,0.3,1.4,0.3h3.5c0.6,0,1.2,0,1.7-0.1s1-0.2,1.5-0.5c0.5-0.2,0.9-0.5,1.3-0.9c0.5-0.5,0.9-1,1.2-1.7
	c0.3-0.6,0.6-1.3,0.7-2.1c0.2-0.8,0.2-1.6,0.2-2.4c0-2.7-0.8-4.8-2.3-6.2c-0.6-0.5-1.3-0.9-2-1.1C17.3,54.9,16.5,54.7,15.6,54.7z
	 M17.4,66.2c-0.2,0.1-0.3,0.3-0.5,0.3c-0.2,0.1-0.4,0.1-0.7,0.2c-0.2,0-0.6,0-1,0h-1.6V58h1.3c0.7,0,1.4,0.1,2,0.3
	c0.5,0.2,0.9,0.6,1.2,1.1c0.4,0.9,0.6,1.9,0.5,2.9C18.6,64.2,18.2,65.5,17.4,66.2z"/>
<path class="st0" d="M35.8,55.5c-1.2-0.7-2.5-1-3.8-1c-1,0-2,0.2-2.9,0.6c-0.9,0.4-1.6,0.9-2.2,1.6c-0.6,0.7-1.1,1.6-1.4,2.5
	c-0.3,1-0.5,2.1-0.5,3.2c0,1.1,0.1,2.1,0.5,3.2c0.3,0.9,0.7,1.8,1.3,2.6c0.6,0.7,1.3,1.3,2.2,1.7c0.9,0.4,2,0.6,3,0.6s2-0.2,3-0.6
	c0.9-0.4,1.6-0.9,2.3-1.7c0.6-0.7,1.1-1.6,1.3-2.5c0.3-1,0.5-2.1,0.4-3.2c0-1.4-0.2-2.8-0.8-4.1C37.7,57.1,36.9,56.2,35.8,55.5z
	 M34.8,65c-0.2,0.6-0.7,1.1-1.2,1.5c-0.9,0.6-2,0.6-2.9,0.2c-0.4-0.2-0.7-0.5-1-0.8c-0.3-0.4-0.6-0.9-0.7-1.5
	c-0.2-0.7-0.3-1.4-0.3-2.1c0-0.7,0.1-1.3,0.3-2c0.1-0.5,0.4-1,0.7-1.4c0.3-0.3,0.6-0.6,1-0.8s0.8-0.3,1.3-0.3c0.6,0,1.2,0.2,1.7,0.5
	c0.5,0.4,0.9,0.9,1.2,1.5C35.5,61.5,35.5,63.3,34.8,65L34.8,65z"/>
<path class="st0" d="M53,63.3c-0.5,0-0.9,0.2-1.2,0.6c-0.2,0.3-0.4,0.7-0.5,1.1c-0.2,0.6-0.5,1.2-1,1.6s-1.1,0.5-1.7,0.5
	c-0.6,0-1.1-0.1-1.6-0.5s-0.9-0.9-1.1-1.4c-0.3-0.8-0.4-1.7-0.4-2.6c-0.1-1.2,0.2-2.5,0.8-3.5c0.5-0.7,1.4-1.2,2.3-1.2
	c0.5,0,1,0.1,1.5,0.4c0.5,0.4,0.8,0.9,1.1,1.4c0.2,0.4,0.4,0.7,0.7,1c0.7,0.6,1.7,0.5,2.3-0.1l0,0c0.3-0.3,0.5-0.8,0.4-1.2
	c0-0.8-0.3-1.6-0.8-2.2c-0.5-0.8-1.3-1.4-2.1-1.9c-1-0.5-2-0.8-3.1-0.8c-0.9,0-1.9,0.2-2.7,0.6c-0.8,0.4-1.6,0.9-2.2,1.6
	c-0.6,0.7-1.1,1.6-1.5,2.5c-0.3,1.1-0.5,2.2-0.5,3.3c0,0.7,0.1,1.4,0.2,2.1c0.1,0.7,0.3,1.3,0.6,1.9s0.6,1.1,1,1.6s0.9,1,1.4,1.3
	s1.1,0.6,1.7,0.7c0.7,0.2,1.3,0.2,2,0.2c0.9,0,1.8-0.2,2.7-0.5c0.7-0.3,1.4-0.8,1.9-1.4c0.5-0.5,0.8-1.1,1.1-1.7
	c0.2-0.5,0.4-1.1,0.4-1.7c0-0.5-0.2-0.9-0.5-1.2C53.9,63.5,53.4,63.3,53,63.3z"/>
</svg>
